<svg width="175" height="265" viewBox="0 0 175 265" fill="none" xmlns="http://www.w3.org/2000/svg">
<g clip-path="url(#clip0_1_8)">
<path d="M84.9595 140.543C84.9595 140.543 70.3497 135.324 73.6958 123.448C77.0418 111.573 85.8683 112.236 95.0114 115.081C104.155 117.925 113.642 118.256 114.482 117.925C106.22 135.006 107.294 139.37 96.2782 140.543C85.2624 141.717 84.9595 140.543 84.9595 140.543Z" fill="#5CAA2E"/>
<path d="M81.2417 60.1501C81.2417 60.1501 70.2259 58.4654 55.1893 43.5798C40.1527 28.6942 39.7947 10.7292 37.7843 6.37954C50.9482 5.52341 71.6992 5.52341 80.0437 28.8184C88.3882 52.1135 81.2417 60.1501 81.2417 60.1501Z" fill="#5CAA2E"/>
<path d="M82.2194 56.0213C82.0227 54.8064 81.6949 53.6164 81.2417 52.4725C80.7808 51.2673 80.2568 50.0874 79.6719 48.9375C78.4972 46.5997 77.182 44.3356 75.7338 42.1575C72.7969 37.8069 69.577 33.6553 66.095 29.7298C62.6285 25.7887 58.9171 22.0714 54.9827 18.6001C53.0037 16.8877 50.9304 15.288 48.7726 13.8086C46.6382 12.2512 44.3271 10.9533 41.8877 9.94217C44.3197 10.9117 46.6303 12.1629 48.7726 13.6705C50.9547 15.138 53.0554 16.7237 55.0654 18.4206C59.0864 21.8227 62.8898 25.4754 66.453 29.357C70.0676 33.2037 73.4298 37.2811 76.5187 41.5638C78.0234 43.7334 79.4026 45.9879 80.6496 48.3161C82.0078 50.6869 82.9793 53.2601 83.5275 55.9385L82.2194 56.0213Z" fill="#506815"/>
<path d="M48.7174 6.66953C50.1272 8.09928 51.2657 9.7744 52.0773 11.613C52.9085 13.4474 53.5142 15.3763 53.8811 17.3573V17.6335H53.6195C52.6263 17.4605 51.6108 17.4605 50.6177 17.6335C49.6125 17.7578 48.6073 17.9373 47.6159 18.1582C45.6192 18.6139 43.6502 19.1801 41.7086 19.8153C43.6091 19.0435 45.5597 18.4022 47.547 17.8959C48.5421 17.6291 49.5543 17.4307 50.5763 17.3021C51.6112 17.1296 52.6673 17.1296 53.7021 17.3021L53.4818 17.5231C53.2965 16.5452 53.0621 15.5774 52.7795 14.6233C52.4991 13.6836 52.1634 12.7614 51.7743 11.8615C51.3793 10.9458 50.9191 10.0598 50.3973 9.2103C49.9287 8.30611 49.3655 7.4544 48.7174 6.66953Z" fill="#506815"/>
<path d="M56.9105 8.72702C58.143 9.41934 59.1333 10.4751 59.747 11.7511C60.4039 13.009 60.8681 14.359 61.124 15.7556C61.2892 16.446 61.3306 17.1364 61.4407 17.8407C61.5509 18.5449 61.5509 19.2215 61.5646 19.9534C61.5646 21.3342 61.5646 22.7151 61.4132 24.1788V24.3721H61.2066C59.7516 24.0226 58.2672 23.81 56.7728 23.7369C55.2824 23.6608 53.7883 23.7302 52.3114 23.9441C50.8263 24.1507 49.3615 24.4833 47.9326 24.9383C46.5029 25.3717 45.1193 25.9452 43.8016 26.6505C47.7661 24.41 52.2654 23.2976 56.8141 23.4331C58.3299 23.4931 59.837 23.6919 61.3168 24.0269L61.0965 24.1788L61.1791 22.0937C61.1791 21.3895 61.1791 20.7128 61.1791 19.9948C61.1791 19.2768 61.1791 18.6139 61.0965 17.9097C61.0138 17.2055 60.9588 16.5289 60.8073 15.8384C60.5858 14.4655 60.1587 13.1341 59.5405 11.8892C59.0049 10.5914 58.0875 9.48828 56.9105 8.72702Z" fill="#506815"/>
<path d="M67.0037 12.4277C68.7096 15.2689 69.658 18.5025 69.7576 21.8175C69.8127 23.4677 69.7019 25.1192 69.4271 26.7472C69.1428 28.3734 68.7189 29.9719 68.1603 31.5249V31.6906H67.9951C66.3992 31.3132 64.7509 31.2105 63.1206 31.3869C61.4734 31.5387 59.8365 31.7877 58.2186 32.1325C54.958 32.8432 51.7399 33.7376 48.5797 34.8114C51.678 33.6137 54.8577 32.64 58.0946 31.8978C59.7193 31.5269 61.3658 31.2594 63.0242 31.0969C64.6919 30.8828 66.3842 30.967 68.0226 31.3454L67.8023 31.4559C68.0364 30.6826 68.3393 29.9093 68.5597 29.1361C68.7793 28.3495 68.9586 27.5522 69.0967 26.7472C69.3947 25.1402 69.5285 23.507 69.496 21.8728C69.4533 20.2405 69.2222 18.6187 68.8075 17.0398C68.4369 15.4214 67.829 13.8672 67.0037 12.4277Z" fill="#506815"/>
<path d="M77.1108 21.5966C77.2882 24.8173 77.256 28.0461 77.0144 31.2626C76.907 32.8651 76.7093 34.4602 76.4223 36.0403C76.2089 37.6454 75.7442 39.2065 75.0453 40.6662V40.7767H74.9076C73.4741 40.4953 72.0047 40.4486 70.5564 40.6386C69.0968 40.7905 67.6372 41.0114 66.1913 41.3014C63.2997 41.8906 60.4356 42.5902 57.599 43.4003C60.3811 42.4242 63.218 41.6127 66.0949 40.97C67.5408 40.6662 69.0004 40.4176 70.4737 40.2519C71.9598 40.0311 73.472 40.0591 74.9489 40.3348L74.7424 40.4177C75.4234 38.9947 75.8876 37.4772 76.1193 35.9161C76.4179 34.3498 76.6339 32.7688 76.7665 31.1797C77.1108 27.9899 77.1108 24.8554 77.1108 21.5966Z" fill="#506815"/>
<path d="M89.3108 101.01C89.3108 101.01 82.1092 78.9159 94.9839 70.8655C107.859 62.8151 121.876 70.3546 130.895 63.8232C128.651 82.6718 125.388 85.9168 118.007 91.2193C110.626 96.5218 89.3108 101.01 89.3108 101.01Z" fill="#1C5E1C"/>
<path d="M79.2037 105.787C72.8156 105.929 66.5068 104.348 60.9359 101.21C55.365 98.0715 50.7364 93.4911 47.5332 87.9467C36.2558 68.6147 49.282 51.9202 50.7829 42.5442C67.2653 48.2471 80.7184 60.7576 84.092 75.9471C87.4656 91.1365 80.1263 104.02 79.2037 105.787Z" fill="#1C5E1C"/>
<path d="M78.5841 105.138C77.4754 104.312 76.4719 103.352 75.5961 102.28C74.7255 101.272 73.9118 100.217 73.1588 99.1178C71.6566 96.937 70.2774 94.6735 69.0279 92.3378C66.5903 87.6754 64.4338 82.8706 62.5699 77.9493C60.659 73.0581 59.0314 68.0603 57.6954 62.9808C57.0482 60.44 56.4699 57.8716 56.0705 55.2756C55.6056 52.6888 55.4209 50.0591 55.5197 47.4324C55.4792 50.0505 55.7146 52.6657 56.222 55.2342C56.6764 57.8164 57.296 60.3572 57.9983 62.8842C59.4328 67.9206 61.1616 72.868 63.1757 77.7007C65.1414 82.5472 67.3992 87.2692 69.9367 91.8407C71.2149 94.1016 72.6218 96.287 74.1502 98.3859C74.8971 99.4372 75.7064 100.442 76.5737 101.396C77.3935 102.332 78.3175 103.171 79.3277 103.896L78.5841 105.138Z" fill="#506815"/>
<path d="M50.3147 52.3068C50.685 53.2079 51.1464 54.0685 51.6917 54.8752C52.2029 55.7038 52.7687 56.4973 53.3854 57.2503C53.9891 57.9978 54.6375 58.7079 55.3269 59.3768C56.0336 60.0402 56.7735 60.667 57.5438 61.2548L57.2684 61.3652C57.4901 60.3928 57.8617 59.461 58.37 58.6035C58.852 57.7302 59.3854 56.8864 59.9673 56.0765C61.1119 54.4154 62.3776 52.8415 63.754 51.3678C62.4872 52.9144 61.2892 54.5024 60.1601 56.1318C59.6035 56.9493 59.0932 57.7976 58.6316 58.6726C58.1449 59.5316 57.8008 60.4644 57.6127 61.4343V61.7242L57.3924 61.5447C55.8561 60.3334 54.4694 58.9427 53.2614 57.4022C51.9903 55.8891 50.993 54.1646 50.3147 52.3068Z" fill="#506815"/>
<path d="M46.2939 57.8717C46.8812 59.4262 47.6831 60.8903 48.6761 62.2214C49.6392 63.5642 50.7425 64.8002 51.9671 65.9082C53.1958 67.0132 54.5338 67.9895 55.9603 68.8219C56.6488 69.2775 57.3373 69.6089 58.136 69.9956C58.9346 70.3822 59.6506 70.6308 60.3942 70.976L60.1739 71.1141C60.4222 69.6532 60.7954 68.2164 61.2892 66.8196C61.7856 65.4285 62.4031 64.0839 63.1344 62.8013C64.5866 60.2135 66.5276 57.934 68.8488 56.0904C67.7337 57.0434 66.7228 58.1126 65.8333 59.2801C64.8955 60.4182 64.0614 61.6382 63.3409 62.9256C62.6264 64.1975 62.0317 65.5336 61.5646 66.9163C61.0951 68.3023 60.7405 69.7248 60.5043 71.1693V71.3764L60.2978 71.2936C58.7341 70.6769 57.2274 69.9237 55.7951 69.0428C54.3698 68.1768 53.0324 67.1733 51.8019 66.0463C49.316 63.8236 47.4228 61.0138 46.2939 57.8717Z" fill="#506815"/>
<path d="M45.1511 69.2775C46.3546 70.7076 47.6717 72.0375 49.0893 73.2544C50.4872 74.4894 51.9839 75.607 53.5645 76.5961C55.1399 77.5817 56.8155 78.3964 58.5629 79.0264C60.3079 79.6577 62.1267 80.0615 63.9744 80.2277L63.7954 80.3796C64.0677 78.7631 64.5977 77.2012 65.3651 75.7537C66.1068 74.3237 66.9345 72.9403 67.8437 71.6112C69.64 68.9177 71.6378 66.365 73.8198 63.975C71.7425 66.4464 69.8115 69.0376 68.0365 71.7354C67.1476 73.0644 66.3427 74.4479 65.6268 75.878C64.8922 77.2981 64.3901 78.8273 64.1396 80.4072V80.5729H63.9744C60.219 80.1905 56.613 78.8966 53.4681 76.8032C50.2889 74.7875 47.4762 72.2424 45.1511 69.2775Z" fill="#506815"/>
<path d="M52.3251 84.7155C54.9689 86.0963 57.654 87.3115 60.4079 88.4162C61.7796 88.9587 63.182 89.4198 64.6077 89.797C66.0086 90.2216 67.4685 90.4174 68.9314 90.377L68.7799 90.5151C69.1448 88.9866 69.7993 87.5427 70.7077 86.262C71.5617 84.9686 72.4809 83.7196 73.4617 82.5199C75.4166 80.1221 77.5133 77.8441 79.7407 75.6985C77.6201 77.9355 75.6098 80.2553 73.6407 82.6028C72.6906 83.8179 71.7818 85.0607 70.8867 86.3587C70.024 87.6113 69.4072 89.0172 69.0691 90.5013V90.6393H68.9314C67.4283 90.6794 65.9293 90.4646 64.4976 90.0042C63.0655 89.5945 61.6586 89.1011 60.284 88.5266C57.5492 87.4358 54.8902 86.1626 52.3251 84.7155Z" fill="#506815"/>
<path d="M95.9615 127.204C95.9615 127.204 101.759 110.096 123.763 105.539C139.474 102.28 157.333 102.39 162.717 107.168C168.101 111.946 170.484 121.612 172.99 121.861C170.236 124.622 166.972 126.638 158.215 133.045C149.457 139.453 130.028 141.206 118.874 138.942C107.721 136.677 95.9615 127.204 95.9615 127.204Z" fill="#1C5E1C"/>
<path d="M79.2037 137.685C79.3139 137.009 72.3188 119.734 55.3269 115.081C38.335 110.427 21.2468 117.925 17.584 126.39C13.9212 134.854 14.2379 139.025 9.73523 140.875C18.0797 142.711 17.405 147.903 30.9407 152.101C44.4764 156.299 75.541 162.651 79.2037 137.685Z" fill="#1C5E1C"/>
<path d="M78.0333 88.789C78.0333 88.789 61.1653 62.6494 42.1355 54.1157C23.1057 45.5821 6.88488 57.0432 0 67.3443C5.89346 67.4686 12.021 71.8735 22.6788 79.9101C33.3366 87.9467 64.8831 100.927 78.0333 88.789Z" fill="#347A34"/>
<path d="M97.5864 74.6352C97.5864 74.6352 104.347 51.7683 132.41 44.9883C160.473 38.2083 172.246 46.9905 175 54.0329C167.234 56.7946 160.969 63.5746 146.937 70.106C132.906 76.6375 106.73 77.0241 97.5864 74.6352Z" fill="#388C38"/>
<path d="M79.2037 180.395C79.2037 180.395 87.6308 164.446 84.092 127.204C80.5532 89.9627 79.1624 58.9487 83.6101 42.5442C83.6101 62.8289 82.6324 66.0187 83.3071 76.6375C83.9818 87.2563 86.8873 119.265 88.7324 133.17C90.5776 147.075 87.8925 173.035 85.0559 181.569C80.2089 184.248 79.2037 180.395 79.2037 180.395Z" fill="#506815"/>
<path d="M83.073 56.118C80.041 55.9833 77.0989 55.0445 74.5468 53.3973C71.9947 51.7502 69.924 49.4536 68.5459 46.742C63.8779 37.366 70.2258 15.0928 81.9163 7.22188C93.6069 -0.648995 100.946 6.15232e-06 100.946 6.15232e-06C100.946 6.15232e-06 113.972 11.2126 111.301 28.0452C108.63 44.8778 96.7739 54.6128 83.073 56.118Z" fill="#388C38"/>
<path d="M84.0919 111.849C84.0919 111.849 73.5305 114.114 72.1536 106.077C70.7766 98.0408 92.3263 94.7267 102.599 95.279C112.871 95.8314 114.867 97.088 117.869 109.239C112.912 105.787 110.158 103.564 104.347 107.044C98.5364 110.524 94.6396 114.362 84.0919 111.849Z" fill="#388C38"/>
<path d="M81.5033 88.0848C84.1996 84.9125 87.1769 81.9915 90.3986 79.3578C93.5629 76.7102 96.8979 74.2746 100.382 72.0668C103.85 69.8492 107.436 67.821 111.122 65.9911C112.995 65.1488 114.84 64.2374 116.74 63.4503C118.64 62.6632 120.513 61.8485 122.468 61.1995C130.193 58.4637 138.092 56.2494 146.111 54.5714C150.121 53.7485 154.17 53.1309 158.242 52.7211C162.308 52.2308 166.418 52.2308 170.484 52.7211C166.419 52.2951 162.319 52.36 158.27 52.9144C154.221 53.3839 150.201 54.1295 146.221 54.9995C138.27 56.8377 130.45 59.2042 122.813 62.0833C120.899 62.7599 119.067 63.6574 117.181 64.4307C115.294 65.204 113.518 66.1844 111.673 67.0681C108.074 68.9621 104.581 71.0502 101.208 73.3234C97.8388 75.569 94.619 78.0322 91.569 80.6972C88.5114 83.3138 85.6913 86.1973 83.1419 89.3137L81.5033 88.0848Z" fill="#506815"/>
<path d="M161.629 46.4934C160.56 46.6193 159.534 46.9876 158.628 47.5705C157.694 48.0963 156.813 48.7113 155.998 49.407C155.172 50.0941 154.382 50.8223 153.629 51.5888C152.872 52.3482 152.17 53.1629 151.454 53.9776L151.33 53.5772C153.274 54.164 155.128 55.0192 156.838 56.118C158.534 57.1869 160.141 58.3922 161.643 59.722C160.039 58.539 158.37 57.4465 156.645 56.4494C154.943 55.4289 153.12 54.6263 151.22 54.0605L150.834 53.95L151.096 53.6601C151.812 52.8315 152.473 52.0306 153.313 51.2574C154.083 50.4883 154.902 49.7688 155.764 49.1032C156.625 48.4297 157.547 47.838 158.518 47.3357C159.478 46.8232 160.542 46.5353 161.629 46.4934Z" fill="#506815"/>
<path d="M151.275 44.9883C148.774 46.6575 146.395 48.5033 144.156 50.5117C143.04 51.5197 141.939 52.5416 140.892 53.6186C139.846 54.6957 138.841 55.8142 137.849 56.9465L137.698 56.6151C139.046 56.9964 140.37 57.4575 141.663 57.9959C142.944 58.5621 144.211 59.142 145.45 59.7772C147.942 61.02 150.38 62.3594 152.776 63.7679C150.297 62.5159 147.8 61.2962 145.285 60.1086C142.8 58.8851 140.227 57.8511 137.588 57.0155L137.216 56.9051L137.464 56.6151C139.446 54.3186 141.596 52.1724 143.894 50.1941C146.197 48.2445 148.667 46.5025 151.275 44.9883Z" fill="#506815"/>
<path d="M136.748 45.4025C135.207 46.1263 133.771 47.0553 132.479 48.1642C131.18 49.2498 130.011 50.4823 128.995 51.8373C126.958 54.5543 125.547 57.6905 124.864 61.02L124.685 60.7576C127.614 61.4899 130.38 62.7687 132.837 64.5274C135.291 66.2441 137.505 68.2829 139.419 70.5893C137.377 68.4174 135.095 66.4856 132.617 64.8312C131.383 64.0168 130.089 63.2967 128.747 62.677C127.419 62.0826 126.035 61.6201 124.616 61.2962H124.382V61.0614C125.091 57.6681 126.56 54.4808 128.678 51.7407C130.781 48.9678 133.56 46.785 136.748 45.4025Z" fill="#506815"/>
<path d="M120.541 51.0916C118.091 53.2249 115.879 55.6186 113.945 58.2307C111.907 60.7403 110.682 63.8139 110.434 67.0405L110.241 66.792C112.468 67.3814 114.591 68.313 116.534 69.5537C118.458 70.8029 120.225 72.282 121.794 73.9586C120.101 72.4158 118.255 71.0508 116.286 69.8851C114.38 68.726 112.316 67.8515 110.158 67.2891H109.979V67.0958C110.021 65.4271 110.411 63.7856 111.122 62.2766C111.795 60.7602 112.636 59.3244 113.628 57.9959C115.62 55.4 117.944 53.0786 120.541 51.0916Z" fill="#506815"/>
<path d="M87.1902 134.371C89.4546 131.349 92.3923 128.899 95.7688 127.218C98.9656 125.509 102.323 124.121 105.793 123.076C112.699 121.035 119.796 119.712 126.971 119.126C134.108 118.415 141.281 118.139 148.452 118.298C152.03 118.378 155.601 118.645 159.151 119.099C162.717 119.49 166.227 120.282 169.616 121.46C166.211 120.348 162.691 119.63 159.123 119.32C155.574 118.938 152.007 118.749 148.438 118.754C141.295 118.735 134.158 119.159 127.067 120.024C119.989 120.768 113.007 122.249 106.234 124.443C102.887 125.557 99.6586 127 96.5949 128.751C95.0759 129.603 93.6257 130.572 92.2575 131.651C91.6103 132.231 90.9631 132.797 90.3848 133.418C89.8311 133.999 89.3417 134.638 88.9252 135.324L87.1902 134.371Z" fill="#506815"/>
<path d="M162.291 113.631C161.231 113.524 160.161 113.666 159.165 114.045C158.161 114.358 157.188 114.765 156.259 115.26C155.323 115.757 154.414 116.296 153.505 116.876C152.597 117.456 151.784 118.091 150.93 118.712V118.312C152.685 119.266 154.301 120.456 155.736 121.847C157.171 123.21 158.493 124.687 159.688 126.265C158.383 124.814 157.004 123.432 155.557 122.123C154.075 120.805 152.438 119.674 150.683 118.754L150.338 118.574L150.655 118.339C151.509 117.704 152.376 117.083 153.285 116.503C154.173 115.926 155.092 115.401 156.039 114.929C157.01 114.469 158.019 114.094 159.055 113.81C160.106 113.504 161.212 113.442 162.291 113.631Z" fill="#506815"/>
<path d="M152.555 110.096C149.801 111.194 147.127 112.486 144.555 113.962C141.987 115.423 139.517 117.052 137.161 118.836V118.436C138.382 119.085 139.56 119.813 140.686 120.618C141.815 121.419 142.93 122.22 144.004 123.076C146.18 124.774 148.273 126.555 150.311 128.392C148.163 126.68 145.987 125.009 143.784 123.379C141.604 121.705 139.303 120.195 136.899 118.864L136.555 118.754L136.871 118.519C141.599 114.862 146.899 112.015 152.555 110.096Z" fill="#506815"/>
<path d="M138.4 107.555C136.777 107.94 135.212 108.539 133.746 109.336C132.261 110.084 130.874 111.011 129.615 112.098C127.095 114.3 125.108 117.048 123.804 120.134L123.68 119.817C125.023 120.449 126.3 121.213 127.494 122.095C128.683 122.958 129.793 123.923 130.813 124.981C132.855 127.117 134.601 129.518 136.004 132.12C134.444 129.61 132.595 127.293 130.496 125.216C129.458 124.191 128.349 123.24 127.178 122.371C126.023 121.507 124.787 120.758 123.487 120.134H123.267L123.363 119.913C124.735 116.789 126.814 114.027 129.436 111.849C132.02 109.69 135.101 108.214 138.4 107.555Z" fill="#506815"/>
<path d="M121.587 109.709C120.186 110.471 118.834 111.319 117.539 112.25C116.225 113.144 114.974 114.127 113.793 115.191C111.325 117.168 109.523 119.858 108.63 122.896L108.492 122.62C110.521 123.654 112.379 124.995 114 126.597C115.626 128.172 117.05 129.944 118.241 131.872C116.91 130.055 115.402 128.375 113.738 126.859C112.094 125.334 110.239 124.055 108.23 123.062L108.051 122.979V122.799C108.428 121.205 109.137 119.709 110.131 118.408C111.098 117.119 112.207 115.943 113.435 114.901C115.914 112.819 118.654 111.074 121.587 109.709Z" fill="#506815"/>
<path d="M87.8374 143.927C87.4021 143.372 86.9029 142.872 86.3503 142.435C85.7712 141.941 85.1643 141.48 84.5326 141.054C83.2152 140.239 81.8336 139.532 80.4017 138.942C77.5358 137.752 74.5675 136.828 71.534 136.18C65.3971 134.959 59.1598 134.316 52.9035 134.261C46.631 134.118 40.3556 134.335 34.1077 134.91C30.982 135.213 27.87 135.6 24.7856 136.208C21.6847 136.739 18.6479 137.595 15.7251 138.762C18.6286 137.532 21.651 136.607 24.7443 136C27.8287 135.338 30.9407 134.882 34.0664 134.509C40.3261 133.817 46.6196 133.475 52.9172 133.487C59.2373 133.4 65.552 133.894 71.7818 134.965C74.9145 135.566 77.988 136.444 80.9663 137.588C82.492 138.194 83.9657 138.924 85.3726 139.77C86.0723 140.193 86.7481 140.654 87.3968 141.151C88.0851 141.679 88.7049 142.292 89.2419 142.974L87.8374 143.927Z" fill="#506815"/>
<path d="M19.085 130.988C21.4156 130.923 23.7411 131.241 25.9698 131.927C28.2156 132.611 30.3703 133.567 32.3866 134.772L32.6895 134.951L32.3728 135.131C31.3883 135.755 30.5019 136.523 29.7428 137.409C28.9579 138.293 28.2281 139.218 27.5258 140.171C26.1489 142.09 24.8545 144.078 23.6428 146.136C24.7128 144.002 25.9274 141.945 27.278 139.977C27.9465 139.01 28.6778 138.087 29.4674 137.216C30.2525 136.277 31.1822 135.471 32.2213 134.827V135.186C31.2161 134.606 30.2109 134.04 29.1507 133.556C28.1021 133.075 27.0262 132.655 25.9285 132.3C24.8271 131.942 23.7052 131.651 22.5687 131.43C21.423 131.178 20.2571 131.03 19.085 130.988Z" fill="#506815"/>
<path d="M23.6703 124.277C27.6519 124.157 31.6015 125.025 35.168 126.804C36.9575 127.63 38.6597 128.634 40.2491 129.8C41.8296 131.006 43.3038 132.346 44.6554 133.805L44.8344 133.998L44.6003 134.123C43.0853 134.987 41.6438 135.976 40.2904 137.078C38.9317 138.173 37.6736 139.388 36.5313 140.709C35.3791 142.042 34.3469 143.474 33.4468 144.99C32.5088 146.475 31.7244 148.053 31.106 149.699C32.2478 146.354 34.0195 143.26 36.3247 140.585C37.4566 139.225 38.7103 137.973 40.0701 136.843C41.4288 135.706 42.8797 134.686 44.4076 133.791V134.109C43.7053 133.432 43.0306 132.728 42.3283 132.024C41.6261 131.319 40.8825 130.643 40.0839 130.118C38.5122 128.923 36.8236 127.891 35.0441 127.039C33.2855 126.171 31.439 125.495 29.5362 125.023C27.6246 124.504 25.6505 124.253 23.6703 124.277Z" fill="#506815"/>
<path d="M36.0355 118.091C40.2981 119.355 44.3162 121.335 47.9188 123.946C51.6036 126.504 54.5983 129.939 56.6351 133.943L56.7177 134.122L56.5387 134.205C54.8791 135.152 53.3745 136.349 52.0773 137.754C50.7613 139.157 49.5246 140.632 48.3732 142.173C46.0896 145.275 43.9796 148.502 42.0529 151.839C43.8531 148.408 45.9059 145.118 48.1942 141.993C49.3315 140.427 50.5591 138.928 51.8708 137.506C53.178 136.049 54.707 134.809 56.401 133.833L56.3046 134.109C55.3366 132.114 54.1096 130.257 52.6556 128.585C51.2043 126.928 49.5741 125.436 47.7949 124.139C46.0182 122.823 44.1343 121.659 42.1631 120.659C40.1946 119.635 38.1451 118.776 36.0355 118.091Z" fill="#506815"/>
<path d="M56.4561 119.43C59.1904 121.616 61.7757 123.982 64.1947 126.514C65.4152 127.779 66.5645 129.111 67.6371 130.505C68.7685 131.879 69.6452 133.446 70.2258 135.131V135.324L70.0744 135.407C68.5577 136.405 67.2407 137.679 66.1913 139.163C65.0899 140.589 64.0649 142.073 63.1206 143.609C61.2204 146.757 59.4579 150.002 57.833 153.275C59.3106 149.895 60.9984 146.611 62.8865 143.443C63.8268 141.852 64.8518 140.312 65.9572 138.831C67.0254 137.293 68.3702 135.967 69.9229 134.923L69.8265 135.158C69.2563 133.525 68.4187 131.999 67.3479 130.643C66.3072 129.243 65.1853 127.906 63.9881 126.638C61.606 124.167 59.0723 121.75 56.4561 119.43Z" fill="#506815"/>
<path d="M81.9439 93.1249C71.2598 84.7227 59.3889 77.9607 46.7208 73.0611C34.0307 68.0977 20.5049 65.6362 6.88489 65.8116C20.5795 65.2873 34.2462 67.4206 47.1339 72.0945C60.0459 76.7269 72.1962 83.266 83.1832 91.4955L81.9439 93.1249Z" fill="#506815"/>
<path d="M15.5598 59.1421C16.6664 59.1972 17.7434 59.5193 18.6993 60.081C19.672 60.6222 20.5938 61.2508 21.4533 61.959C23.1206 63.4076 24.6468 65.012 26.0111 66.7506L26.2452 67.0544L25.8734 67.151C23.9823 67.7703 22.1777 68.6287 20.5032 69.7056C18.7905 70.7699 17.14 71.9317 15.5598 73.1854C17.0196 71.7882 18.595 70.5179 20.2691 69.388C21.9626 68.2058 23.8178 67.2756 25.777 66.6263L25.6531 67.0267C24.9646 66.1844 24.2761 65.3283 23.5463 64.5274C22.8165 63.7265 22.0316 63.0085 21.1641 62.2766C20.3609 61.5373 19.4895 60.8761 18.5616 60.302C17.6689 59.6783 16.639 59.2803 15.5598 59.1421Z" fill="#506815"/>
<path d="M25.7771 57.5403C28.3625 59.198 30.7956 61.0834 33.0475 63.1741C35.3177 65.2709 37.4259 67.5374 39.354 69.9541L39.5881 70.2441L39.2301 70.3546C36.6286 71.256 34.101 72.3594 31.6705 73.6548C29.192 74.8976 26.7318 76.191 24.2899 77.535C26.6445 76.0437 29.0405 74.6214 31.4915 73.3096C32.717 72.6468 33.9701 72.0254 35.2369 71.4317C36.504 70.824 37.8105 70.3027 39.1475 69.8713L39.0098 70.2717C38.0459 69.0842 37.082 67.8967 36.0355 66.7644C34.989 65.6321 33.915 64.5412 32.8272 63.5194C31.7394 62.4975 30.5827 61.4205 29.4123 60.4262C28.2418 59.432 27.0439 58.424 25.7771 57.5403Z" fill="#506815"/>
<path d="M40.1113 57.9959C41.7194 58.6958 43.2176 59.626 44.559 60.7577C45.924 61.9286 47.1444 63.2591 48.1942 64.7207C49.2347 66.1656 50.1035 67.7273 50.7829 69.3742C51.454 71.0161 51.9703 72.7173 52.3251 74.4557V74.6905H52.0773C50.6519 75.0593 49.2678 75.5729 47.9464 76.2232C46.5936 76.92 45.2956 77.7186 44.0633 78.6121C41.6237 80.3726 39.3923 82.4064 37.4125 84.6741C39.2612 82.2769 41.4189 80.1363 43.8292 78.3083C46.2419 76.4312 49.0039 75.0557 51.9534 74.2624L51.7606 74.5524C51.4135 72.8437 50.9111 71.1705 50.2597 69.5537C49.6253 67.9177 48.8125 66.3571 47.8362 64.9002C46.8473 63.4528 45.6919 62.1273 44.3938 60.951C43.1113 59.7697 41.6698 58.775 40.1113 57.9959Z" fill="#506815"/>
<path d="M56.098 64.0303C58.7078 66.1985 61.0225 68.7008 62.9829 71.4731C63.9766 72.8671 64.8125 74.3677 65.4753 75.9471C66.1586 77.5319 66.5326 79.2335 66.5768 80.9596V81.1529H66.3841C64.1919 81.7843 62.1108 82.7532 60.2152 84.0251C58.282 85.2818 56.4865 86.7398 54.8588 88.3748C56.3683 86.6167 58.0941 85.0577 59.9949 83.7351C61.9002 82.3918 64.012 81.3702 66.2464 80.711L66.0674 80.9458C65.8353 77.5977 64.6501 74.3867 62.6525 71.694C61.7253 70.2824 60.704 68.9353 59.5956 67.6619C58.5002 66.3851 57.3324 65.1725 56.098 64.0303Z" fill="#506815"/>
<path d="M81.6272 62.9394C81.3608 61.5758 81.2682 60.1838 81.3518 58.7968C81.4015 57.4613 81.521 56.1292 81.7098 54.8062C82.087 52.1872 82.6111 49.5917 83.2795 47.0319C84.6469 41.9516 86.3161 36.9578 88.278 32.0773C90.176 27.175 92.36 22.389 94.8186 17.744C96.0579 15.438 97.366 13.1596 98.8256 10.9778C100.242 8.76491 101.89 6.70965 103.741 4.8468C101.933 6.73658 100.331 8.8151 98.9633 11.0468C97.5572 13.2807 96.2657 15.5852 95.094 17.9511C92.7353 22.6111 90.6524 27.4063 88.8563 32.312C87.0247 37.209 85.4889 42.2121 84.2572 47.2943C83.6624 49.8271 83.2028 52.39 82.8802 54.9719C82.7425 56.2561 82.6461 57.5541 82.6324 58.8383C82.6003 60.0752 82.7066 61.3119 82.9491 62.5251L81.6272 62.9394Z" fill="#506815"/>
<path d="M96.6086 4.88821C96.2759 5.78367 96.027 6.70823 95.8651 7.64993C95.5028 9.56032 95.3871 11.5095 95.5208 13.4495C95.5208 14.4161 95.7274 15.3689 95.8651 16.3217L95.5897 16.225C96.426 15.6166 97.3564 15.1501 98.3436 14.8442C99.294 14.538 100.259 14.2799 101.235 14.0709C103.181 13.65 105.156 13.3731 107.143 13.2424C105.173 13.5186 103.218 13.8638 101.29 14.3056C100.325 14.5204 99.3732 14.7925 98.44 15.1204C97.5045 15.4382 96.6258 15.9044 95.8375 16.5012L95.6034 16.6945V16.4045C95.2784 14.4664 95.1859 12.4961 95.3281 10.5359C95.4391 8.59507 95.8719 6.68636 96.6086 4.88821Z" fill="#506815"/>
<path d="M89.889 6.25528C89.2761 7.79016 88.8776 9.40259 88.7048 11.0468C88.4983 12.6914 88.4706 14.3536 88.6222 16.0041C88.7738 17.6479 89.0921 19.2719 89.5723 20.8509C89.7789 21.6518 90.1093 22.4113 90.3847 23.1984C90.6601 23.9855 91.0595 24.7035 91.3899 25.463L91.1283 25.3939C92.2987 24.4988 93.5424 23.7043 94.8461 23.0189C96.1686 22.3277 97.5514 21.7591 98.9771 21.3204C101.781 20.3995 104.737 20.0337 107.68 20.2433C106.214 20.1899 104.748 20.2824 103.301 20.5195C100.41 20.9606 97.6156 21.8947 95.0389 23.2812C93.7567 23.9766 92.5359 24.7805 91.3899 25.6839L91.2247 25.8082L91.1283 25.6287C90.3966 24.1236 89.7976 22.5573 89.3382 20.9476C88.8747 19.3436 88.5748 17.6965 88.4432 16.0317C88.1105 12.7031 88.6073 9.34379 89.889 6.25528Z" fill="#506815"/>
<path d="M81.3381 13.8086C81.2507 15.6749 81.3152 17.5452 81.5308 19.401C81.7292 21.2666 82.0745 23.1135 82.5636 24.9244C83.0494 26.7233 83.728 28.4642 84.5877 30.1165C85.4447 31.765 86.5091 33.2964 87.7548 34.6733H87.5207C88.8113 33.6692 90.2582 32.8854 91.8031 32.3535C93.3199 31.7974 94.8697 31.3362 96.4435 30.9726C99.5962 30.2233 102.799 29.7064 106.027 29.426C102.829 29.835 99.6574 30.4251 96.5261 31.1935C94.9677 31.564 93.4321 32.0251 91.927 32.5744C90.435 33.1208 89.0403 33.9041 87.7961 34.8942L87.6722 35.0047L87.562 34.8804C85.0673 32.0351 83.2916 28.6299 82.3846 24.9521C81.4137 21.3229 81.0599 17.5556 81.3381 13.8086Z" fill="#506815"/>
<path d="M76.1881 30.1027C77.2071 32.8644 78.3362 35.6261 79.6168 38.3049C80.2526 39.645 80.9605 40.9496 81.7373 42.2128C82.4756 43.4682 83.4047 44.6003 84.4913 45.5682H84.2847C85.5852 44.6867 87.0444 44.0676 88.5809 43.7455C90.0788 43.3734 91.5957 43.083 93.1249 42.8756C96.1816 42.4341 99.2629 42.1851 102.351 42.1299C99.2662 42.337 96.2094 42.6408 93.1662 43.0965C91.6446 43.3197 90.1367 43.6286 88.6497 44.0217C87.1722 44.3606 85.771 44.9741 84.5188 45.8306L84.4087 45.9135L84.3123 45.8306C83.1755 44.8416 82.2161 43.6647 81.4757 42.3509C80.7024 41.0761 80.0036 39.7575 79.3827 38.4016C78.129 35.7122 77.0616 32.9393 76.1881 30.1027Z" fill="#506815"/>
<path d="M83.1418 96.867C84.0644 96.7704 84.6978 96.7842 85.4965 96.7566H87.7409C89.2556 96.7566 90.7565 96.867 92.2437 96.9913C95.2439 97.225 98.2193 97.71 101.139 98.4412C104.066 99.1291 106.887 100.211 109.525 101.659C112.158 103.104 114.439 105.118 116.203 107.555C114.383 105.181 112.06 103.242 109.401 101.88C106.752 100.518 103.931 99.5237 101.015 98.9245C98.1326 98.2948 95.2036 97.9022 92.2574 97.7508C90.7841 97.6679 89.2969 97.6265 87.8098 97.6403C87.0662 97.6403 86.3364 97.6403 85.5929 97.6403C84.8493 97.6403 84.0369 97.737 83.4585 97.7922L83.1418 96.867Z" fill="#506815"/>
<path d="M98.922 106.326C99.0403 104.441 99.4204 102.582 100.051 100.802C100.219 100.349 100.441 99.9179 100.712 99.5183C100.981 99.0859 101.382 98.7519 101.855 98.5655C102.798 98.3437 103.775 98.3062 104.733 98.455C106.61 98.7289 108.456 99.1915 110.241 99.8359C112.046 100.353 113.7 101.3 115.06 102.598C114.379 101.986 113.583 101.517 112.719 101.217C111.869 100.857 111.001 100.543 110.117 100.278C108.341 99.6635 106.511 99.2241 104.65 98.9659C103.777 98.7947 102.879 98.7947 102.006 98.9659C101.222 99.2145 100.781 100.14 100.395 100.927C99.7108 102.668 99.2168 104.478 98.922 106.326Z" fill="#506815"/>
<path d="M87.7272 108.301C87.7146 105.919 88.1009 103.553 88.8701 101.3C89.2492 100.145 89.8635 99.0825 90.674 98.1788C91.5472 97.305 92.6762 96.734 93.8961 96.5494C96.2451 96.1729 98.631 96.0848 101.001 96.2871C103.359 96.4453 105.704 96.7497 108.024 97.1984C105.683 96.9361 103.328 96.7566 100.988 96.6737C98.6543 96.5365 96.3132 96.6569 94.0062 97.0327C92.8771 97.1922 91.8268 97.7043 91.0044 98.4964C90.2288 99.3529 89.6257 100.352 89.2281 101.438C88.4093 103.643 87.9041 105.954 87.7272 108.301Z" fill="#506815"/>
<path d="M34.5621 179.732L47.0513 265H122.317L133.704 179.732H34.5621Z" fill="#D18133"/>
<path d="M131.804 193.955L133.704 179.732H34.5621L47.0513 265H63.575C62.0466 224.127 84.5051 183.157 131.804 193.955Z" fill="#C46C23"/>
<path d="M131.873 186.291H36.3935C33.8371 186.291 31.3854 185.273 29.5778 183.46C27.7702 181.647 26.7546 179.189 26.7546 176.625C26.7546 174.062 27.7702 171.603 29.5778 169.79C31.3854 167.978 33.8371 166.959 36.3935 166.959H131.873C134.429 166.959 136.881 167.978 138.689 169.79C140.496 171.603 141.512 174.062 141.512 176.625C141.512 179.189 140.496 181.647 138.689 183.46C136.881 185.273 134.429 186.291 131.873 186.291Z" fill="#D18133"/>
<path d="M94.5707 156.465C94.5707 156.465 102.254 141.634 115.955 145.984C129.656 150.334 142.682 163.742 141.842 173.601C141.002 183.46 143.013 188.666 143.013 188.666C143.013 188.666 140.341 186.498 132.823 187.672C125.305 188.846 111.439 187.161 101.924 177.288C92.4089 167.415 91.5414 160.801 94.5707 156.465Z" fill="#1C5E1C"/>
<path d="M86.4604 150.513C89.1702 150.007 91.9616 150.164 94.5984 150.969C97.1636 151.649 99.6581 152.574 102.048 153.731C106.757 156.06 111.234 158.834 115.418 162.016C119.634 165.139 123.666 168.505 127.494 172.096C129.395 173.891 131.24 175.769 133.002 177.744C134.755 179.695 136.301 181.824 137.615 184.096C136.264 181.851 134.676 179.758 132.878 177.854C131.135 175.922 129.297 174.079 127.37 172.331C123.484 168.836 119.402 165.567 115.143 162.541C110.904 159.475 106.375 156.834 101.621 154.656C99.2702 153.587 96.8215 152.75 94.3092 152.156C93.0708 151.854 91.8084 151.659 90.5363 151.577C89.3267 151.481 88.1098 151.575 86.9286 151.853L86.4604 150.513Z" fill="#506815"/>
<path d="M139.405 177.274C138.612 176.733 137.768 176.27 136.885 175.893C136.021 175.465 135.128 175.096 134.214 174.789C133.313 174.481 132.393 174.232 131.46 174.043C130.513 173.857 129.557 173.718 128.596 173.629L128.775 173.38C129.107 174.341 129.292 175.347 129.326 176.363C129.381 177.361 129.381 178.361 129.326 179.359C129.224 181.354 128.975 183.339 128.582 185.297C128.83 183.322 129.009 181.334 129.092 179.359C129.147 178.366 129.147 177.37 129.092 176.377C129.05 175.398 128.85 174.433 128.5 173.518L128.389 173.256H128.679C130.627 173.449 132.546 173.875 134.393 174.526C136.207 175.152 137.901 176.081 139.405 177.274Z" fill="#506815"/>
<path d="M139.846 170.425C138.532 169.416 137.081 168.602 135.536 168.009C134.005 167.384 132.412 166.921 130.785 166.628C129.162 166.354 127.515 166.238 125.87 166.283C125.043 166.283 124.231 166.407 123.405 166.462C122.579 166.517 121.78 166.725 120.967 166.835L121.091 166.6C121.667 167.968 122.127 169.381 122.468 170.826C122.799 172.268 122.992 173.738 123.047 175.217C123.196 178.17 122.775 181.123 121.807 183.916C122.247 182.515 122.537 181.071 122.675 179.608C122.845 178.155 122.891 176.691 122.813 175.231C122.738 173.769 122.53 172.318 122.193 170.895C121.852 169.477 121.392 168.091 120.816 166.752L120.733 166.545H120.94C122.573 166.223 124.233 166.052 125.897 166.034C127.563 166.001 129.228 166.135 130.868 166.435C134.144 166.999 137.229 168.37 139.846 170.425Z" fill="#506815"/>
<path d="M134.779 160.179C133.004 159.606 131.184 159.181 129.339 158.909C127.518 158.613 125.676 158.466 123.832 158.467C121.98 158.473 120.134 158.672 118.324 159.061C116.514 159.456 114.764 160.087 113.119 160.939V160.718C113.748 162.229 114.125 163.834 114.234 165.468C114.379 167.084 114.42 168.707 114.358 170.329C114.261 173.572 113.92 176.803 113.339 179.995C113.784 176.79 114.051 173.563 114.138 170.329C114.17 168.715 114.106 167.101 113.945 165.496C113.822 163.898 113.441 162.331 112.816 160.856L112.733 160.704H112.885C116.275 159.035 120.015 158.206 123.79 158.287C127.533 158.293 131.248 158.933 134.779 160.179Z" fill="#506815"/>
<path d="M120.485 150.914C117.539 151.176 114.592 151.549 111.687 152.087C110.232 152.354 108.794 152.7 107.377 153.123C105.967 153.517 104.629 154.132 103.411 154.946V154.739C103.903 156.233 104.113 157.807 104.031 159.378C104.031 160.925 103.865 162.471 103.686 164.004C103.303 167.079 102.733 170.127 101.979 173.132C102.603 170.094 103.094 167.042 103.452 163.977C103.631 162.45 103.727 160.915 103.741 159.378C103.807 157.85 103.588 156.324 103.094 154.877V154.752L103.273 154.656C104.536 153.812 105.933 153.191 107.404 152.819C108.836 152.416 110.289 152.089 111.755 151.839C114.642 151.336 117.558 151.027 120.485 150.914Z" fill="#506815"/>
</g>
<defs>
<clipPath id="clip0_1_8">
<rect width="175" height="265" fill="white"/>
</clipPath>
</defs>
</svg>
